<svg viewBox="0 0 94 36" version="1.1" xmlns="http://www.w3.org/2000/svg" xmlns:xlink="http://www.w3.org/2000/xlink">
    <path d="M5.80604709,0 L30.1933741,0 C33.3868447,0 35.9998071,2.61296235 35.9998071,5.80662587 L35.9998071,30.1939529 C35.9998071,33.3868447 33.3868447,36 30.1933741,36 L5.80604709,36 C2.61315527,36 0,33.3868447 0,30.1939529 L0,5.80662587 C0,2.61296235 2.61315527,0 5.80604709,0" id="Fill-1" fill="#FD015B"></path>
    <path d="M18.8177083,7 C18.8177083,7 12.1334712,7.70166451 10.2244885,13.9840409 L9,21.5017095 L11.4316138,24.7326074 L11.4316138,24.7370446 L14.5376898,28.8841384 L14.6275924,27.966592 L12.1701268,24.685341 L13.6245807,15.72981 C13.6245807,15.72981 14.9472674,10.0593884 21.8429492,10.491924 C21.8429492,10.491924 23.8443425,10.7325002 25.0508891,9.38376866 C26.2574356,8.03542299 26.020525,7 26.020525,7 L18.8177083,7 Z M16.4576693,20.9678889 L15.039871,29.6976988 L23.7312891,21.5464679 L24.9594431,13.9840409 L20.036602,13.9840409 C20.036602,13.9840409 17.2841556,14.4289236 17.0244799,17.475772 L21.1729242,17.475772 C21.1729242,17.475772 19.3075423,18.4255367 19.2807258,20.9678889 L16.7424251,20.9678889 L16.4576693,20.9678889 Z" id="Fill-3" fill="#FFFFFF"></path>
    <path d="M72.7734242,5.83798853 L82.1839288,5.83798853 L82.1839288,3.23281472 L72.7734242,3.23281472 L72.7734242,5.83798853 Z M82.802753,7.24770634 L84.6911741,7.24770634 L84.6911741,5.81159647 L84.6911741,1.80000386 L87.9144777,1.80000386 L87.9144777,5.81159647 L87.9144777,7.24770634 L91.4970257,7.24770634 L93.1248253,8.55046688 L93.1248253,25.050364 L93.1248253,29.2611124 L93.1248253,30.2166091 L91.5619641,31.5837871 L87.8832239,31.5837871 L87.8832239,34.2000733 L84.6262358,34.2000733 L84.6262358,30.2166091 L86.1568014,28.9791342 L89.8690526,28.9791342 L89.8690526,9.85288015 L87.9144777,9.85288015 L87.9144777,24.2806535 L87.9144777,24.8529445 L84.6911741,24.8529445 L84.6911741,24.2806535 L84.6911741,9.85288015 L82.802753,9.85288015 L82.802753,7.24770634 Z M62.3074111,34.1023185 L59.6372989,33.4616166 L65.4876539,22.5262763 L65.4876539,13.5981213 L68.6684176,13.5981213 L68.6684176,22.4016086 L66.5898695,26.2251578 L70.7035577,33.2072458 L67.9077361,33.9724418 L64.9808222,29.1843671 L62.3074111,34.1023185 Z M65.4468504,10.8552574 L65.4468504,7.53124732 L61.7668948,7.53124732 L60.2040336,6.16354844 L60.2040336,1.80000386 L63.4280317,1.80000386 L63.4280317,4.92607352 L67.1725784,4.92607352 L68.7033177,6.16354844 L68.7033177,10.8552574 L65.4468504,10.8552574 Z M59.2926395,6.94506585 L47.8952646,6.94506585 L47.8952646,4.33989205 L51.9655448,4.33989205 L51.9655448,1.80000386 L55.2218384,1.80000386 L55.2218384,4.33989205 L59.2926395,4.33989205 L59.2926395,6.94506585 Z M47.7001022,17.0070375 L59.992029,17.0070375 L59.992029,14.4343328 L47.7001022,14.4343328 L47.7001022,17.0070375 Z M51.3791897,31.4976656 L55.8081935,31.4976656 L55.8081935,27.4923238 L51.3791897,27.4923238 L51.3791897,31.4976656 Z M51.3791897,24.8871499 L55.8081935,24.8871499 L55.8081935,20.882329 L51.3791897,20.882329 L51.3791897,24.8871499 Z M49.7513901,18.3094507 L57.435993,18.3094507 L59.0644871,19.5793948 L59.0644871,32.7999053 L57.435993,34.1023185 L49.7513901,34.1023185 L48.1235906,32.7999053 L48.1235906,19.5793948 L49.7513901,18.3094507 Z M49.4258302,13.652989 L48.5139152,7.92244011 L51.5750465,7.92244011 L52.5194307,13.652989 L49.4258302,13.652989 Z M54.6356569,13.652989 L55.5473983,7.92244011 L58.6409988,7.92244011 L57.6967882,13.652989 L54.6356569,13.652989 Z M82.802753,16.1932245 L77.2342027,16.1932245 L75.737148,31.5948995 L78.9606252,31.5948995 L78.9606252,20.9146245 L82.1839288,20.9146245 L82.1839288,32.8978337 L80.5559556,34.2000733 L73.97843,34.2000733 L72.382926,32.7999053 L73.9459608,16.1932245 L72.1547736,16.1932245 L72.1547736,13.6205199 L82.802753,13.6205199 L82.802753,16.1932245 Z" id="Fill-5" fill="#FFFFFF"></path>
</svg>